<svg width="512" height="512" viewBox="0 0 512 512" fill="none" xmlns="http://www.w3.org/2000/svg">
<path d="M376.264 290.173C442.578 223.88 442.578 116.013 376.264 49.7205C309.95 -16.5735 202.051 -16.5735 135.736 49.7205C69.4215 116.013 69.4215 223.88 135.736 290.173C163.806 318.234 199.327 334.413 235.99 338.719V395.642H195.971C184.92 395.642 175.963 404.598 175.963 415.645C175.963 426.692 184.92 435.648 195.971 435.648H235.99V491.996C235.991 503.043 244.949 511.999 256.001 511.999C267.052 511.999 276.01 503.043 276.01 491.996V435.648H316.029C327.08 435.648 336.037 426.692 336.037 415.645C336.037 404.598 327.08 395.642 316.029 395.642H276.01V338.72C312.674 334.413 348.194 318.234 376.264 290.173ZM164.034 261.884C113.323 211.189 113.323 128.703 164.034 78.0085C214.744 27.3155 297.254 27.3125 347.967 78.0085C398.678 128.703 398.678 211.189 347.967 261.884C297.257 312.578 214.745 312.578 164.034 261.884Z" fill="black"/>
</svg>
