<svg width="512" height="512" viewBox="0 0 512 512" fill="none" xmlns="http://www.w3.org/2000/svg">
<path d="M468.992 17.4062H327.68C313.344 17.4062 302.08 28.6702 302.08 43.0062C302.08 57.3422 313.344 68.6062 327.68 68.6062H406.528L312.32 162.814C239.616 108.542 136.192 113.662 70.6565 179.198C-1.02352 250.878 -1.02352 368.638 70.6565 440.318C142.336 511.998 260.096 511.998 331.776 440.318C397.312 374.782 403.456 270.334 348.16 198.654L442.368 104.446V184.318C442.368 198.654 453.632 209.918 467.968 209.918C482.304 209.918 493.568 198.654 493.568 184.318V43.0062C494.592 28.6702 483.328 17.4062 468.992 17.4062ZM296.96 404.478C244.736 456.702 159.744 456.702 107.52 404.478C55.2965 352.254 55.2965 267.262 107.52 215.038C159.744 162.814 244.736 162.814 296.96 215.038C349.184 267.262 349.184 352.254 296.96 404.478Z" fill="black"/>
</svg>
